<?xml version="1.0" encoding="utf-8"?><svg xmlns="http://www.w3.org/2000/svg" xmlns:xlink="http://www.w3.org/1999/xlink"><symbol viewBox="0 0 20 20" id="calendar" xmlns="http://www.w3.org/2000/svg"><path d="M5 .625a.625.625 0 00-1.25 0v.625H2.5A2.5 2.5 0 000 3.75V5h20V3.75a2.5 2.5 0 00-2.5-2.5h-1.25V.625a.625.625 0 10-1.25 0v.625H5V.625zM20 17.5V6.25H0V17.5A2.5 2.5 0 002.5 20h15a2.5 2.5 0 002.5-2.5zm-8.125-8.75h1.25a.625.625 0 01.625.625v1.25a.624.624 0 01-.625.625h-1.25a.624.624 0 01-.625-.625v-1.25a.625.625 0 01.625-.625zm3.75 0h1.25a.625.625 0 01.625.625v1.25a.624.624 0 01-.625.625h-1.25a.624.624 0 01-.625-.625v-1.25a.625.625 0 01.625-.625zM2.5 13.125a.625.625 0 01.625-.625h1.25a.625.625 0 01.625.625v1.25a.625.625 0 01-.625.625h-1.25a.625.625 0 01-.625-.625v-1.25zm4.375-.625h1.25a.625.625 0 01.625.625v1.25a.625.625 0 01-.625.625h-1.25a.625.625 0 01-.625-.625v-1.25a.625.625 0 01.625-.625z"/></symbol><symbol viewBox="0 0 28 14" id="list" xmlns="http://www.w3.org/2000/svg"><path d="M28 0H14C6.268 0 0 6.268 0 14h14c7.732 0 14-6.268 14-14z"/></symbol><symbol viewBox="0 0 20 16" id="metro" xmlns="http://www.w3.org/2000/svg"><g clip-path="url(#cclip0_1_136)"><path d="M6.027 3.367c-.3-1.016-1.114-.904-1.67-.431-1.37 1.266-3.155 3.923-2.013 7.75C3.3 13.928 7.28 16 7.28 16H2.64S.245 13.315.03 10.157c-.272-3.993 1.328-6.511 3.184-8.153C4.956.46 6.613.001 6.613.001L10 11.1 13.388 0s1.656.459 3.398 2.003c1.856 1.642 3.455 4.16 3.184 8.153C19.756 13.314 17.36 16 17.36 16h-4.64s3.98-2.074 4.937-5.315c1.142-3.826-.642-6.484-2.013-7.75-.557-.473-1.37-.585-1.67.431l-3.973 12.53-3.973-12.53h-.001z"/></g><defs><clipPath id="cclip0_1_136"><path d="M0 0h20v16H0z"/></clipPath></defs></symbol><symbol viewBox="0 0 20 20" id="nav" xmlns="http://www.w3.org/2000/svg"><path d="M10 1.25a6.883 6.883 0 00-6.875 6.875A6.806 6.806 0 004.51 12.25s.188.247.218.283L10 18.75l5.274-6.22c.028-.034.216-.28.216-.28v-.002a6.803 6.803 0 001.385-4.123A6.883 6.883 0 0010 1.25zm0 9.375a2.5 2.5 0 110-5 2.5 2.5 0 010 5z"/></symbol></svg>